<?xml version="1.0" encoding="utf-8"?>
<!-- Generator: Adobe Illustrator 27.7.0, SVG Export Plug-In . SVG Version: 6.00 Build 0)  -->
<svg version="1.1" id="Layer_1" xmlns="http://www.w3.org/2000/svg" xmlns:xlink="http://www.w3.org/1999/xlink" x="0px" y="0px"
	 viewBox="0 0 125 50" style="enable-background:new 0 0 125 50;" xml:space="preserve">
<style type="text/css">
	.st0{fill:#13A5DD;}
</style>
<g>
	<g>
		<g>
			<g>
				<path d="M106.84,28.47H18.16c-6.73,0-12.21-5.48-12.21-12.21v-4.04C5.95,5.48,11.43,0,18.16,0h88.68
					c6.73,0,12.21,5.48,12.21,12.21v4.04C119.06,22.99,113.57,28.47,106.84,28.47z M18.16,2.01c-5.63,0-10.22,4.58-10.22,10.22v4.04
					c0,5.63,4.58,10.22,10.22,10.22h88.68c5.63,0,10.22-4.58,10.22-10.22v-4.04c0-5.63-4.58-10.22-10.22-10.22L18.16,2.01
					L18.16,2.01z"/>
			</g>
			<path d="M35.34,18.13c-0.04,0.14-0.07,0.27-0.1,0.39c-0.05,0.12-0.1,0.24-0.13,0.34c-0.04,0.14-0.07,0.29-0.11,0.47l-0.13,0.47
				c-0.01,0.05-0.02,0.1-0.02,0.13c-0.02,0.04-0.04,0.07-0.05,0.13c-0.83,0.45-1.67,0.78-2.52,0.99c-0.85,0.2-1.82,0.33-2.91,0.36
				c-3.05-0.03-5.38-0.64-7.01-1.81c-1.7-1.23-2.54-3.05-2.54-5.46c0-2.59,0.89-4.53,2.67-5.82c1.68-1.18,4.1-1.76,7.27-1.76
				c0.96,0,1.95,0.19,2.99,0.57c0.55,0.19,1.42,0.58,2.6,1.17c-0.14,0.33-0.26,0.72-0.36,1.17c-0.08,0.4-0.18,0.9-0.29,1.51h-0.29
				c-0.35-0.81-0.94-1.51-1.77-2.1c-0.92-0.63-1.89-0.96-2.91-0.96c-2.04,0-3.58,0.46-4.62,1.38c-1.16,1.01-1.74,2.58-1.74,4.73
				c0,2.11,0.58,3.68,1.74,4.7c1.07,0.95,2.63,1.43,4.67,1.43c0.99,0,1.94-0.18,2.85-0.54c0.92-0.37,1.76-0.9,2.55-1.59L35.34,18.13
				z"/>
			<path d="M45.23,12.83c-0.5-0.73-1.28-1.09-2.34-1.09c-1.02,0-1.79,0.37-2.31,1.11c-0.5,0.73-0.75,1.82-0.75,3.3
				c0,1.45,0.26,2.55,0.78,3.3c0.52,0.73,1.28,1.09,2.29,1.09c1.02,0,1.79-0.37,2.31-1.11c0.52-0.73,0.78-1.8,0.78-3.22
				C45.98,14.69,45.73,13.56,45.23,12.83 M47.51,19.92c-1.09,0.86-2.62,1.32-4.6,1.35c-1.99-0.04-3.53-0.49-4.62-1.37
				c-1.11-0.89-1.66-2.13-1.66-3.74c0-1.64,0.55-2.92,1.66-3.84c1.11-0.9,2.66-1.35,4.65-1.35c2.01,0,3.55,0.45,4.62,1.35
				c1.07,0.91,1.61,2.23,1.61,3.92C49.17,17.79,48.62,19.02,47.51,19.92"/>
			<path d="M59.07,12.83c-0.5-0.73-1.28-1.09-2.34-1.09c-1.02,0-1.79,0.37-2.31,1.11c-0.5,0.73-0.75,1.82-0.75,3.3
				c0,1.45,0.26,2.55,0.78,3.3c0.52,0.73,1.28,1.09,2.29,1.09c1.02,0,1.79-0.37,2.31-1.11c0.52-0.73,0.78-1.8,0.78-3.22
				C59.82,14.69,59.57,13.56,59.07,12.83 M61.35,19.92c-1.09,0.86-2.62,1.32-4.6,1.35c-1.99-0.04-3.53-0.49-4.62-1.37
				c-1.11-0.89-1.66-2.13-1.66-3.74c0-1.64,0.55-2.92,1.66-3.84c1.11-0.9,2.66-1.35,4.65-1.35c2.01,0,3.55,0.45,4.62,1.35
				c1.07,0.91,1.61,2.23,1.61,3.92C63.01,17.79,62.46,19.02,61.35,19.92"/>
			<path d="M66.54,21.17c-0.22,0-0.43,0.01-0.62,0.03c-0.19-0.02-0.4-0.03-0.62-0.03c-0.21,0.02-0.54,0.05-0.99,0.11
				c0.09-1.04,0.15-2.14,0.18-3.32c0.02-0.97,0.02-2.4,0.02-4.31c0-1.76-0.01-3.26-0.05-4.47c-0.04-1.07-0.09-2.03-0.16-2.88
				c0.37,0.04,0.65,0.06,0.86,0.08c0.21,0.02,0.46,0.03,0.75,0.03c0.31,0,0.57-0.01,0.8-0.03c0.21-0.02,0.48-0.04,0.8-0.08
				c-0.07,0.67-0.12,1.68-0.16,3.01c-0.04,1.3-0.05,2.7-0.05,4.2c0,1.63,0.02,3.12,0.05,4.49c0.04,1.35,0.08,2.44,0.16,3.27
				C67.08,21.22,66.75,21.18,66.54,21.17"/>
			<path class="st0" d="M80.17,11.82c-1.11,1.16-2.26,2.4-3.45,3.71c-1.08,1.18-2.39,2.65-3.95,4.41h0.7c0.77,0,1.83-0.02,3.16-0.08
				c1.28-0.04,2.38-0.08,3.3-0.13c0,0.05-0.02,0.17-0.05,0.36c-0.02,0.16-0.03,0.29-0.03,0.39v0.26c0.02,0.07,0.05,0.16,0.08,0.25
				c-0.61-0.03-1.52-0.05-2.73-0.08h-3.14h-2.83c-1.07,0.02-1.88,0.05-2.41,0.08v-0.6c1.75-1.87,3.2-3.45,4.36-4.75
				c1.19-1.32,2.21-2.46,3.04-3.43h-0.78c-0.64,0-1.5,0.01-2.57,0.05c-0.81,0.04-1.81,0.09-2.99,0.16c0.04-0.11,0.06-0.21,0.08-0.31
				v-0.29v-0.3c-0.01-0.12-0.04-0.24-0.08-0.37c0.92,0.02,1.97,0.04,3.15,0.05c1.19,0.02,2.25,0.03,3.21,0.03
				c0.57,0,1.23-0.01,1.97-0.03c1.04-0.04,1.69-0.05,1.95-0.05L80.17,11.82L80.17,11.82z"/>
			<path class="st0" d="M89.65,13.93c-0.06-0.26-0.12-0.49-0.21-0.71c-0.17-0.5-0.43-0.87-0.78-1.11c-0.35-0.22-0.79-0.34-1.32-0.34
				c-0.78,0-1.4,0.3-1.87,0.91c-0.49,0.6-0.75,1.44-0.8,2.52c0.29,0.02,0.59,0.02,0.88,0.02h1.66h0.68c0.45,0,0.81,0,1.09-0.02
				c-0.43,0.02-0.18,0.01,0.75-0.02C89.71,14.63,89.68,14.22,89.65,13.93 M92.63,15.74c0.03-0.24,0.02-0.11-0.03,0.42
				c-0.52-0.04-1.11-0.06-1.79-0.08h-2.26l-3.92,0.02c-0.02,0.05-0.02,0.11-0.02,0.18v0.13c0,1.16,0.35,2.08,1.04,2.75
				c0.69,0.69,1.63,1.04,2.8,1.04c0.64,0,1.25-0.11,1.82-0.31c0.54-0.18,1.08-0.46,1.63-0.85l0.26,0.12l-0.08,0.16
				c-0.11,0.21-0.17,0.36-0.21,0.47c-0.05,0.12-0.1,0.28-0.13,0.47c-0.71,0.35-1.39,0.6-2.03,0.75c-0.6,0.14-1.31,0.23-2.13,0.26
				c-1.88-0.04-3.37-0.5-4.47-1.4c-1.11-0.92-1.66-2.16-1.66-3.71c0-1.63,0.53-2.9,1.58-3.82c1.04-0.92,2.48-1.38,4.31-1.38
				c1.7,0,3,0.4,3.92,1.2c0.91,0.78,1.38,1.88,1.38,3.29C92.66,15.51,92.65,15.6,92.63,15.74"/>
			<path class="st0" d="M104.16,20.96h-0.75h-0.7c-0.24,0-0.5,0.02-0.78,0.05c0.04-0.41,0.08-1.12,0.13-2.13
				c0.04-1,0.05-1.81,0.05-2.41c0-0.85-0.02-1.46-0.05-1.84c-0.06-0.41-0.15-0.74-0.29-0.99c-0.21-0.4-0.49-0.7-0.86-0.91
				c-0.36-0.18-0.79-0.28-1.3-0.28c-0.55,0-1.04,0.13-1.48,0.39c-0.41,0.24-0.71,0.58-0.88,1.02c-0.12,0.33-0.2,0.71-0.23,1.14
				c-0.04,0.44-0.05,1.31-0.05,2.57c0,0.66,0.01,1.23,0.02,1.74c0.02,0.47,0.04,1.04,0.08,1.71c-0.29-0.03-0.57-0.05-0.83-0.05h-0.7
				h-0.67c-0.3,0-0.6,0.02-0.91,0.05c0.09-0.52,0.15-1.25,0.18-2.18c0.03-0.78,0.05-1.75,0.05-2.9c0-0.85-0.02-1.62-0.05-2.31
				c-0.04-0.73-0.1-1.54-0.18-2.44c0.33,0.04,0.62,0.06,0.89,0.08h0.73h0.7c0.2-0.02,0.45-0.04,0.73-0.08
				c-0.02,0.17-0.03,0.31-0.04,0.41c-0.01,0.1-0.01,0.24-0.01,0.43c-0.02,0.08-0.02,0.18-0.02,0.29v0.29l-0.02,0.26
				c0.55-0.64,1.16-1.11,1.82-1.4c0.66-0.32,1.41-0.47,2.26-0.47c1.26,0,2.25,0.31,2.96,0.91c0.72,0.6,1.09,1.43,1.09,2.46
				c0,0.17-0.01,0.41-0.03,0.71c0,0.06-0.01,0.37-0.02,0.9c-0.02,0.52-0.03,0.86-0.03,1.01c-0.02,0.35-0.03,0.66-0.03,0.93
				c0,0.57,0.01,1.14,0.03,1.69c0.04,0.53,0.07,1.01,0.11,1.42C104.73,20.98,104.43,20.96,104.16,20.96"/>
		</g>
	</g>
	<g>
		<path d="M35.94,39.13v1.56h-7.09v1.98h4.77v4.41H24v1.39h10.13V50H22.16v-4.43h9.62v-1.37h-9.71v-1.54h4.89v-1.98h-7.09v-1.56
			h11.6c0.06-0.32,0.11-0.63,0.14-0.93c0.03-0.3,0.06-0.6,0.08-0.89l-9.73,0.25l-0.04-1.58l9.85-0.13v-1.43h-9.64v-1.6h11.52v2.6
			c0,0.47-0.02,1.04-0.07,1.7c-0.05,0.67-0.12,1.33-0.22,2.01C33.35,39.13,35.94,39.13,35.94,39.13z"/>
		<path class="st0" d="M41.57,39.55c-0.05,0.15-0.17,0.34-0.37,0.57c-0.2,0.23-0.38,0.43-0.56,0.61c-0.25,0.26-0.6,0.6-1.04,0.99
			c-0.44,0.39-0.92,0.82-1.45,1.27l-1.16-1.29c0.6-0.48,1.14-0.93,1.62-1.35c0.48-0.42,0.85-0.78,1.1-1.08
			c0.2-0.24,0.36-0.45,0.48-0.63s0.21-0.36,0.28-0.53c0.06-0.17,0.11-0.35,0.13-0.54c0.02-0.19,0.04-0.41,0.04-0.67v-1.77h-2.87
			v-1.56h7.4v1.56h-2.7v1.65c0,0.24,0.01,0.46,0.04,0.65c0.02,0.19,0.07,0.38,0.14,0.56c0.07,0.18,0.17,0.37,0.3,0.55
			c0.13,0.18,0.3,0.39,0.52,0.62c0.33,0.34,0.68,0.67,1.05,0.99c0.37,0.32,0.79,0.66,1.27,1.03l-1.18,1.31
			c-0.43-0.37-0.8-0.69-1.12-0.98c-0.32-0.29-0.6-0.55-0.86-0.81c-0.24-0.24-0.46-0.46-0.65-0.65c-0.19-0.19-0.32-0.36-0.38-0.49
			L41.57,39.55L41.57,39.55z M42.69,48.06h9.7v1.64H40.81v-5.8h1.88L42.69,48.06L42.69,48.06z M44.51,36.88h2.45v-4.3h1.79v11.81
			h-1.79v-5.91h-2.45C44.51,38.48,44.51,36.88,44.51,36.88z M50.26,32.36h1.81v12.45h-1.81V32.36z"/>
		<path d="M61.42,34.92h-5.55v-1.58h7.4v2.78c0,0.06,0,0.13,0,0.2c0,0.07-0.01,0.14-0.02,0.2h3.99v-4.16h1.86v9.92h-1.86v-4.15
			h-4.31c-0.18,0.43-0.43,0.83-0.77,1.2c-0.34,0.37-0.79,0.73-1.36,1.08c-0.57,0.36-1.27,0.72-2.08,1.1
			c-0.82,0.38-1.78,0.79-2.9,1.23l-0.67-1.52c0.85-0.34,1.59-0.65,2.23-0.93s1.18-0.55,1.64-0.81c0.46-0.26,0.83-0.51,1.13-0.74
			c0.3-0.24,0.54-0.48,0.73-0.73l-5.44,0.23l-0.06-1.56l6.03-0.11c0.01-0.09,0.02-0.17,0.02-0.26s0-0.17,0-0.28v-1.13H61.42z
			 M69.1,43.14v6.73H58.17v-6.73H69.1z M60.03,48.27h7.21v-3.54h-7.21V48.27z"/>
		<path d="M81.91,49.85v-5.47h-4.22v5.47H75.8v-5.47h-4.05v-1.6h16.09v1.6h-4.05v5.47H81.91z M86.17,39.34v1.56H73.43v-1.56h2.45
			v-4.43h-2.32v-1.56h12.45v1.56h-2.28v4.43H86.17z M77.77,39.34h4.09v-4.43h-4.09V39.34z"/>
		<path d="M92.18,35.38v3.37h5.5v1.6h-5.5v3.59h1.65c1.15,0,2.23-0.03,3.21-0.08c0.99-0.06,1.92-0.16,2.79-0.3l0.19,1.6
			c-0.52,0.08-1.03,0.14-1.53,0.2c-0.5,0.06-1.02,0.1-1.55,0.12s-1.09,0.05-1.67,0.06c-0.58,0.01-1.22,0.02-1.9,0.02h-3.06V33.76
			h8.02v1.62L92.18,35.38L92.18,35.38z M101.86,49.89v-9.55h-3.17v-1.64h3.17v-6.35h1.88v17.53L101.86,49.89L101.86,49.89z"/>
	</g>
</g>
</svg>
