<?xml version="1.0" encoding="utf-8"?>
<!-- Generator: Adobe Illustrator 16.0.0, SVG Export Plug-In . SVG Version: 6.00 Build 0)  -->
<!DOCTYPE svg PUBLIC "-//W3C//DTD SVG 1.1//EN" "http://www.w3.org/Graphics/SVG/1.1/DTD/svg11.dtd">
<svg version="1.1" id="Layer_1" xmlns="http://www.w3.org/2000/svg" xmlns:xlink="http://www.w3.org/1999/xlink" x="0px" y="0px"
	 width="30px" height="30px" viewBox="0 0 30 30" enable-background="new 0 0 30 30" xml:space="preserve">
<g>
	<path fill-rule="evenodd" clip-rule="evenodd" fill="#242424" d="M-107.89,19.008c-1.462,0-2.922-0.004-4.384,0.002
		c-4.218,0.015-7.436,3.191-7.502,7.407c-0.014,0.87,0.013,1.741-0.025,2.609c-0.024,0.566-0.477,0.965-1.002,0.974
		c-0.521,0.008-1.016-0.387-1.026-0.946c-0.032-1.675-0.152-3.357,0.282-5.007c1.107-4.206,4.812-7.081,9.168-7.097
		c2.923-0.011,5.844-0.003,8.766-0.002c5.255,0.003,9.274,3.729,9.643,8.972c0.07,1.005,0.041,2.02,0.022,3.029
		c-0.011,0.571-0.376,0.956-0.89,1.039c-0.422,0.066-0.9-0.179-1.061-0.593c-0.081-0.211-0.106-0.453-0.11-0.682
		c-0.015-0.824,0.011-1.648-0.017-2.472c-0.115-3.536-2.497-6.376-5.955-7.088c-0.498-0.102-1.017-0.133-1.526-0.14
		C-104.969,18.997-106.43,19.008-107.89,19.008z"/>
	<path fill-rule="evenodd" clip-rule="evenodd" fill="#242424" d="M-107.86,0c4.073,0,7.416,3.376,7.411,7.482
		c-0.004,4.05-3.386,7.421-7.438,7.412c-4.102-0.008-7.462-3.361-7.456-7.438C-115.336,3.333-111.99,0-107.86,0z M-107.942,2.07
		c-3.001,0.057-5.401,2.512-5.331,5.456c0.07,2.979,2.509,5.352,5.444,5.298c2.967-0.055,5.353-2.494,5.312-5.431
		C-102.559,4.44-105.031,2.015-107.942,2.07z"/>
</g>
<g>
	<polygon fill-rule="evenodd" clip-rule="evenodd" fill="#CCCCCC" points="-147.134,2.958 -147.135,2.955 -147.135,2.958 	"/>
	<path fill-rule="evenodd" clip-rule="evenodd" fill="#CCCCCC" d="M-129.359,27.76l-0.878-0.869
		c-1.103-1.093-2.207-2.184-3.302-3.285c-0.939-0.944-1.87-1.895-2.807-2.853l-1.556-1.587l0.219-0.304
		c1.927-2.667,2.673-5.618,2.217-8.771c-0.471-3.263-2.04-5.887-4.663-7.8C-142.184,0.792-144.588,0-147.082,0
		c-3.251,0-6.302,1.328-8.589,3.739c-4.007,4.225-4.279,10.827-0.632,15.359c2.248,2.794,5.714,4.462,9.273,4.462
		c2.538,0,4.983-0.827,7.072-2.391l0.301-0.226l0.525,0.502l7.061,7.063c0.374,0.38,0.75,0.762,1.139,1.126
		c0.248,0.236,0.561,0.365,0.878,0.365c0.531,0,0.96-0.337,1.093-0.858C-128.828,28.61-128.957,28.158-129.359,27.76z
		 M-147.074,21.124c-5.197-0.044-9.33-4.24-9.293-9.354c0.037-5.105,4.179-9.259,9.232-9.259h0.102
		c5.203,0.057,9.265,4.145,9.246,9.306C-137.804,16.948-141.971,21.124-147.074,21.124z"/>
</g>
<g>
	<path fill="#242424" d="M-64.096,8.63c-0.176-0.233-0.473-0.359-0.854-0.365h-21.332c-0.065-0.275-0.127-0.545-0.188-0.815
		c-0.147-0.642-0.285-1.249-0.457-1.859c-0.477-1.692-1.591-2.767-3.223-3.109c-0.646-0.134-1.328-0.135-1.987-0.136
		c-0.241,0-0.482,0-0.721-0.007h-0.045c-0.62,0-1.023,0.364-1.024,0.929c-0.001,0.567,0.414,0.938,1.06,0.944
		c0.153,0.002,0.306,0.002,0.459,0.002l0.78-0.001c0.146,0,0.292,0,0.439,0.001c1.274,0.012,2.208,0.758,2.5,1.997
		c1.094,4.652,2.19,9.306,3.287,13.957c0.168,0.713,0.442,0.932,1.171,0.932h8.083h8.086c0.699,0,0.971-0.205,1.154-0.877
		l1.513-5.508c0.472-1.717,0.942-3.433,1.411-5.149C-63.879,9.189-63.918,8.866-64.096,8.63z M-66.084,10.163l-0.761,2.769
		c-0.539,1.967-1.097,4-1.638,6.002c-0.067,0.248-0.149,0.313-0.403,0.313c-3.19-0.008-6.431-0.008-9.181-0.008h-5.634l-2.137-9.075
		L-66.084,10.163L-66.084,10.163z"/>
	<path fill="#242424" d="M-70.172,22.479c-1.416,0-2.57,1.16-2.572,2.584c-0.002,0.697,0.268,1.352,0.756,1.84
		c0.487,0.488,1.14,0.758,1.834,0.758h0.006c0.683,0,1.328-0.271,1.82-0.766c0.492-0.492,0.764-1.141,0.762-1.82
		C-67.571,23.645-68.739,22.479-70.172,22.479z M-70.879,25.08c-0.004-0.189,0.068-0.373,0.202-0.508
		c0.136-0.141,0.319-0.217,0.519-0.217c0.396,0,0.711,0.307,0.715,0.697c0.004,0.191-0.068,0.373-0.203,0.51
		c-0.135,0.139-0.317,0.215-0.518,0.217C-70.557,25.779-70.872,25.473-70.879,25.08z M-70.155,27.584L-70.155,27.584L-70.155,27.584
		L-70.155,27.584z"/>
	<path fill="#242424" d="M-82.037,22.479h-0.021c-0.7,0-1.358,0.271-1.852,0.768c-0.49,0.49-0.76,1.143-0.759,1.834
		c0.002,1.398,1.187,2.58,2.588,2.58h0.001c1.421,0,2.583-1.154,2.59-2.57C-79.483,23.66-80.626,22.49-82.037,22.479z
		 M-82.075,24.357l0.032,0.002c0.396,0.016,0.688,0.328,0.68,0.729c-0.008,0.395-0.316,0.691-0.717,0.691h-0.03
		c-0.39-0.014-0.688-0.336-0.68-0.73C-82.781,24.654-82.474,24.357-82.075,24.357z M-82.081,27.584L-82.081,27.584L-82.081,27.584
		L-82.081,27.584z"/>
</g>
<g>
	<path fill-rule="evenodd" clip-rule="evenodd" fill="#242424" stroke="#242424" stroke-width="0.5" stroke-miterlimit="10" d="
		M-43.509,6.774c3.853,0,7.705-0.001,11.558,0.001c1.551,0.001,2.788,0.838,3.237,2.224c0.119,0.371,0.172,0.779,0.173,1.17
		c0.012,4.698,0.011,9.396,0.006,14.095c-0.003,1.992-1.396,3.391-3.386,3.393c-7.745,0.004-15.491,0.006-23.236,0
		c-1.971-0.002-3.367-1.406-3.37-3.377c-0.006-4.709-0.006-9.417,0-14.126c0.003-1.983,1.406-3.375,3.4-3.377
		C-51.254,6.771-47.382,6.774-43.509,6.774z M-57.23,15.271c0,0.132,0,0.232,0,0.333c0,2.873-0.001,5.748,0,8.621
		c0,1.309,0.803,2.117,2.11,2.117c7.725,0.002,15.448,0.002,23.173,0c1.311,0,2.112-0.807,2.113-2.115c0.001-2.873,0-5.748,0-8.62
		c0-0.108,0-0.217,0-0.336C-38.978,15.271-48.084,15.271-57.23,15.271z M-57.255,10.667c9.175,0,18.287,0,27.406,0
		c0.05-0.649,0.033-1.264-0.376-1.795c-0.446-0.58-1.045-0.788-1.765-0.787C-39.683,8.093-47.375,8.09-55.068,8.09
		c-0.112,0-0.225,0.001-0.336,0.007c-0.844,0.045-1.589,0.654-1.761,1.484C-57.236,9.925-57.226,10.285-57.255,10.667z
		 M-57.206,12.011c0,0.662,0,1.296,0,1.931c9.131,0,18.237,0,27.349,0c0-0.653,0-1.289,0-1.931
		C-38.98,12.011-48.081,12.011-57.206,12.011z"/>
	<path fill-rule="evenodd" clip-rule="evenodd" fill="#242424" stroke="#242424" stroke-width="0.5" stroke-miterlimit="10" d="
		M-34.742,24.387c-0.52,0-1.038,0.004-1.558-0.002c-0.823-0.01-1.355-0.545-1.361-1.363c-0.003-0.396-0.004-0.793,0-1.191
		c0.008-0.766,0.522-1.332,1.285-1.35c1.1-0.023,2.2-0.023,3.299,0c0.764,0.018,1.277,0.582,1.285,1.35
		c0.005,0.396,0.004,0.795,0,1.191c-0.007,0.818-0.539,1.354-1.361,1.363C-33.682,24.391-34.211,24.387-34.742,24.387z
		 M-33.113,23.07c0-0.436,0-0.848,0-1.266c-1.086,0-2.149,0-3.231,0c0,0.428,0,0.84,0,1.266C-35.264,23.07-34.2,23.07-33.113,23.07z
		"/>
	<path fill-rule="evenodd" clip-rule="evenodd" fill="#242424" stroke="#242424" stroke-width="0.5" stroke-miterlimit="10" d="
		M-52.353,18.516c-0.724,0-1.446,0.002-2.17-0.002c-0.472-0.002-0.756-0.254-0.752-0.652c0.004-0.393,0.299-0.645,0.767-0.645
		c1.467-0.002,2.934-0.002,4.401,0c0.369,0.002,0.631,0.205,0.695,0.521c0.06,0.287-0.082,0.592-0.356,0.705
		c-0.126,0.053-0.275,0.068-0.415,0.068C-50.906,18.52-51.629,18.516-52.353,18.516z"/>
</g>
<g>
	<path fill="#242424" d="M29.991,8.067c-0.001-0.435-0.064-0.858-0.182-1.226c-0.472-1.453-1.781-2.356-3.419-2.357l-5.669-0.002
		l-2.85,0.001L8.787,4.482c-1.73,0-3.462,0-5.192,0.003c-2.111,0.002-3.587,1.469-3.59,3.566c-0.006,4.633-0.006,9.263,0,13.895
		c0.003,2.065,1.5,3.565,3.561,3.567c3.44,0.003,6.879,0.004,10.32,0.004c4.179,0,8.358-0.002,12.537-0.004
		c2.103-0.002,3.573-1.475,3.576-3.582C30.002,17.31,30.003,12.688,29.991,8.067z M28.228,8.312H1.762
		C1.764,8.28,1.765,8.249,1.767,8.218c0.011-0.24,0.021-0.467,0.064-0.678c0.145-0.694,0.777-1.226,1.504-1.265
		C3.44,6.27,3.547,6.269,3.653,6.269l9.724,0.001c4.326,0,8.652-0.001,12.982-0.006c0.691,0,1.18,0.216,1.536,0.679
		C28.19,7.326,28.253,7.759,28.228,8.312z M28.229,13.332v8.563c-0.001,1.149-0.686,1.835-1.833,1.835L14.999,23.73L3.602,23.729
		c-1.146,0-1.83-0.687-1.83-1.837v-8.561H28.229z M1.796,11.532v-1.407h26.409v1.407H1.796z"/>
	<path fill="#242424" d="M22.111,22.296c0.221,0.003,0.44,0.003,0.659,0.003h1.77c0.225,0,0.448,0,0.672-0.003
		c0.938-0.011,1.575-0.648,1.582-1.584c0.004-0.392,0.005-0.785,0-1.177c-0.009-0.904-0.628-1.551-1.505-1.571
		c-1.083-0.022-2.17-0.022-3.255,0c-0.876,0.021-1.495,0.667-1.505,1.571c-0.004,0.394-0.003,0.784,0,1.176
		C20.536,21.647,21.172,22.285,22.111,22.296z M22.316,20.512v-0.753h2.687v0.753H22.316z"/>
	<path fill="#242424" d="M4.188,16.521l3.203,0.003c0.356,0,0.713-0.001,1.067-0.005c0.2,0,0.365-0.027,0.502-0.085
		c0.373-0.155,0.583-0.563,0.498-0.971c-0.087-0.429-0.45-0.707-0.924-0.71l-2.166-0.001l-2.165,0.001c-0.592,0-0.995,0.353-1,0.878
		c-0.002,0.243,0.079,0.455,0.234,0.613C3.615,16.425,3.875,16.521,4.188,16.521z"/>
</g>
</svg>
