<?xml version="1.0" encoding="utf-8"?>
<!-- Generator: Adobe Illustrator 16.0.0, SVG Export Plug-In . SVG Version: 6.00 Build 0)  -->
<!DOCTYPE svg PUBLIC "-//W3C//DTD SVG 1.1//EN" "http://www.w3.org/Graphics/SVG/1.1/DTD/svg11.dtd">
<svg version="1.1" id="Layer_1" xmlns="http://www.w3.org/2000/svg" xmlns:xlink="http://www.w3.org/1999/xlink" x="0px" y="0px"
	 width="30px" height="30px" viewBox="0 0 30 30" enable-background="new 0 0 30 30" xml:space="preserve">
<g>
	<path fill-rule="evenodd" clip-rule="evenodd" fill="#242424" d="M15.008,19.008c-1.462,0-2.922-0.004-4.384,0.002
		c-4.218,0.015-7.436,3.191-7.502,7.407c-0.014,0.87,0.013,1.741-0.025,2.609C3.072,29.593,2.619,29.991,2.094,30
		c-0.521,0.008-1.016-0.387-1.026-0.946c-0.032-1.675-0.152-3.357,0.282-5.007c1.107-4.206,4.812-7.081,9.168-7.097
		c2.923-0.011,5.844-0.003,8.766-0.002c5.255,0.003,9.274,3.729,9.643,8.972c0.07,1.005,0.041,2.02,0.022,3.029
		c-0.011,0.571-0.376,0.956-0.89,1.039c-0.422,0.066-0.9-0.179-1.061-0.593c-0.081-0.211-0.106-0.453-0.11-0.682
		c-0.015-0.824,0.011-1.648-0.017-2.472c-0.115-3.536-2.497-6.376-5.955-7.088c-0.498-0.102-1.017-0.133-1.526-0.14
		C17.929,18.997,16.468,19.008,15.008,19.008z"/>
	<path fill-rule="evenodd" clip-rule="evenodd" fill="#242424" d="M15.037,0c4.073,0,7.416,3.376,7.411,7.482
		c-0.004,4.05-3.386,7.421-7.438,7.412c-4.102-0.008-7.462-3.361-7.456-7.438C7.562,3.333,10.907,0,15.037,0z M14.955,2.07
		c-3.001,0.057-5.401,2.512-5.331,5.456c0.07,2.979,2.509,5.352,5.444,5.298c2.967-0.055,5.353-2.494,5.312-5.431
		C20.339,4.44,17.866,2.015,14.955,2.07z"/>
</g>
</svg>
