<?xml version="1.0" encoding="utf-8"?>
<!-- Generator: Adobe Illustrator 27.7.0, SVG Export Plug-In . SVG Version: 6.00 Build 0)  -->
<svg version="1.1" id="레이어_1" xmlns="http://www.w3.org/2000/svg" xmlns:xlink="http://www.w3.org/1999/xlink" x="0px"
	 y="0px" viewBox="0 0 15 13" style="enable-background:new 0 0 15 13;" xml:space="preserve">
<style type="text/css">
	.st0{fill:#424242;}
</style>
<g>
	<path class="st0" d="M14,2H1C0.45,2,0,1.55,0,1s0.45-1,1-1h13c0.55,0,1,0.45,1,1S14.55,2,14,2z"/>
</g>
<g>
	<path class="st0" d="M14,7.5H1c-0.55,0-1-0.45-1-1s0.45-1,1-1h13c0.55,0,1,0.45,1,1S14.55,7.5,14,7.5z"/>
</g>
<g>
	<path class="st0" d="M14,13H1c-0.55,0-1-0.45-1-1s0.45-1,1-1h13c0.55,0,1,0.45,1,1S14.55,13,14,13z"/>
</g>
</svg>
