<?xml version="1.0" encoding="UTF-8"?>
<svg id="Layer_1" data-name="Layer 1" xmlns="http://www.w3.org/2000/svg" version="1.1" xmlns:xlink="http://www.w3.org/1999/xlink" viewBox="0 0 100 50">
  <defs>
    <style>
      .cls-1 {
        fill: #ccc;
      }

      .cls-1, .cls-2, .cls-3, .cls-4, .cls-5, .cls-6, .cls-7, .cls-8 {
        stroke-width: 0px;
      }

      .cls-2, .cls-9, .cls-10, .cls-11, .cls-12, .cls-13 {
        fill: #242424;
      }

      .cls-9 {
        font-family: netmarbleM, netmarble;
      }

      .cls-9, .cls-10, .cls-14, .cls-15, .cls-12, .cls-13 {
        isolation: isolate;
      }

      .cls-9, .cls-12 {
        font-size: 20px;
        letter-spacing: 0em;
      }

      .cls-10 {
        font-size: 17px;
        letter-spacing: 0em;
      }

      .cls-10, .cls-12, .cls-13 {
        font-family: Pretendard-Medium, Pretendard;
        font-weight: 500;
      }

      .cls-11, .cls-15 {
        font-family: Pretendard-Regular, Pretendard;
        font-size: 12px;
      }

      .cls-3, .cls-15 {
        fill: #424242;
      }

      .cls-4 {
        fill: #ffeb00;
      }

      .cls-5 {
        fill: #083e88;
      }

      .cls-6 {
        fill: #ff5050;
        fill-rule: evenodd;
      }

      .cls-16 {
        fill: none;
        stroke: #ccc;
        stroke-miterlimit: 10;
      }

      .cls-7 {
        fill: #fff;
      }

      .cls-8 {
        fill: #fae100;
      }

      .cls-13 {
        font-size: 14px;
      }
    </style>
  </defs>
  <g>
    <rect class="cls-4" x="1.3" y="-56.6" width="99" height="49" rx="9.5" ry="9.5"/>
    <path class="cls-1" d="M90.8-56.1c5,0,9,4,9,9v30c0,5-4,9-9,9H10.8c-5,0-9-4-9-9v-30c0-5,4-9,9-9h80M90.8-57.1H10.8c-5.5,0-10,4.5-10,10v30C.8-11.6,5.3-7.1,10.8-7.1h80c5.5,0,10-4.5,10-10v-30c0-5.5-4.5-10-10-10h0Z"/>
  </g>
  <g>
    <path class="cls-7" d="M-214.6-4c-5.2,0-9.5-4.7-9.5-10.4v-13.1c0-5.7,4.3-10.4,9.5-10.4h28c5.2,0,9.5,4.7,9.5,10.4v13.1c0,5.7-4.3,10.4-9.5,10.4h-28Z"/>
    <path class="cls-1" d="M-186.6-37.4c5,0,9,4.4,9,9.8v13.1c0,5.4-4,9.8-9,9.8h-28c-5,0-9-4.4-9-9.8v-13.1c0-5.4,4-9.8,9-9.8h28M-186.6-38.5h-28c-5.5,0-10,4.9-10,10.9v13.1c0,6,4.5,10.9,10,10.9h28c5.5,0,10-4.9,10-10.9v-13.1c0-6-4.5-10.9-10-10.9h0Z"/>
  </g>
  <g>
    <path class="cls-7" d="M-162.6-4c-5.2,0-9.5-4.7-9.5-10.4v-13.1c0-5.7,4.3-10.4,9.5-10.4h28c5.2,0,9.5,4.7,9.5,10.4v13.1c0,5.7-4.3,10.4-9.5,10.4h-28Z"/>
    <path class="cls-1" d="M-134.6-37.4c5,0,9,4.4,9,9.8v13.1c0,5.4-4,9.8-9,9.8h-28c-5,0-9-4.4-9-9.8v-13.1c0-5.4,4-9.8,9-9.8h28M-134.6-38.5h-28c-5.5,0-10,4.9-10,10.9v13.1c0,6,4.5,10.9,10,10.9h28c5.5,0,10-4.9,10-10.9v-13.1c0-6-4.5-10.9-10-10.9h0Z"/>
  </g>
  <path class="cls-5" d="M100.8,180.4c0,6-4.5,10.9-10,10.9H10.8c-5.5,0-10-4.9-10-10.9v-13.1c0-6,4.5-10.9,10-10.9h80c5.5,0,10,4.9,10,10.9v13.1Z"/>
  <g>
    <g>
      <path class="cls-7" d="M-214.6,234.3c-5.2,0-9.5-4.3-9.5-9.5V14.8c0-5.2,4.3-9.5,9.5-9.5h80c5.2,0,9.5,4.3,9.5,9.5v210c0,5.2-4.3,9.5-9.5,9.5h-80Z"/>
      <path class="cls-1" d="M-134.6,5.8c5,0,9,4,9,9v210c0,5-4,9-9,9h-80c-5,0-9-4-9-9V14.8c0-5,4-9,9-9h80M-134.6,4.8h-80c-5.5,0-10,4.5-10,10v210c0,5.5,4.5,10,10,10h80c5.5,0,10-4.5,10-10V14.8c0-5.5-4.5-10-10-10h0Z"/>
    </g>
    <text class="cls-15" transform="translate(-203.4 23.3)"><tspan x="0" y="0">최근 본 상품</tspan></text>
    <g>
      <image class="cls-14" width="78" height="78" transform="translate(-213.6 39.8)" xlink:href="F63112CF.png"/>
      <rect class="cls-16" x="-213.6" y="39.8" width="78" height="78"/>
    </g>
    <g>
      <image class="cls-14" width="78" height="79" transform="translate(-213.1 134.7) scale(1)" xlink:href="F63112CD.png"/>
      <rect class="cls-16" x="-213.6" y="134.7" width="78" height="78"/>
    </g>
  </g>
  <path class="cls-7" d="M-124.6,366.2c0,6-4.5,10.9-10,10.9h-80c-5.5,0-10-4.9-10-10.9v-13.1c0-6,4.5-10.9,10-10.9h80c5.5,0,10,4.9,10,10.9v13.1Z"/>
  <text class="cls-11" transform="translate(-203.5 363)"><tspan x="0" y="0">1:1 문의하기</tspan></text>
  <path class="cls-7" d="M-124.6,409.6c0,6-4.5,10.9-10,10.9h-80c-5.5,0-10-4.9-10-10.9v-13.1c0-6,4.5-10.9,10-10.9h80c5.5,0,10,4.9,10,10.9v13.1Z"/>
  <text class="cls-11" transform="translate(-208.6 406.4)"><tspan x="0" y="0">쿨젠 링크 모음</tspan></text>
  <g>
    <path class="cls-8" d="M-214.6-46.5c-5.2,0-9.5-4.7-9.5-10.4v-13.1c0-5.8,4.3-10.4,9.5-10.4h80c5.2,0,9.5,4.7,9.5,10.4v13.1c0,5.8-4.3,10.4-9.5,10.4h-80Z"/>
    <path class="cls-1" d="M-134.6-80c5,0,9,4.5,9,9.9v13.1c0,5.5-4,9.9-9,9.9h-80c-5,0-9-4.5-9-9.9v-13.1c0-5.5,4-9.9,9-9.9h80M-134.6-81h-80c-5.5,0-10,4.9-10,10.9v13.1c0,6,4.5,10.9,10,10.9h80c5.5,0,10-4.9,10-10.9v-13.1c0-6-4.5-10.9-10-10.9h0Z"/>
  </g>
  <text class="cls-13" transform="translate(-187.3 -57.1)"><tspan x="0" y="0">카톡 상담</tspan></text>
  <g>
    <path class="cls-3" d="M-193.7-24.8c-.1-.1-.3-.2-.5-.2h-12.8c0-.2,0-.3-.1-.5,0-.4-.2-.8-.3-1.1-.3-1-1-1.7-1.9-1.9-.4,0-.8,0-1.2,0-.1,0-.3,0-.4,0h0c-.4,0-.6.2-.6.6s.2.6.6.6c0,0,.2,0,.3,0h.7c.8,0,1.3.5,1.5,1.2.7,2.8,1.3,5.6,2,8.4.1.4.3.6.7.6h9.7c.4,0,.6-.1.7-.5l.9-3.3c.3-1,.6-2.1.8-3.1,0-.2,0-.4,0-.6ZM-194.9-23.9l-.5,1.7c-.3,1.2-.7,2.4-1,3.6,0,.1,0,.2-.2.2-1.9,0-3.9,0-5.5,0h-3.4l-1.3-5.4h11.9Z"/>
    <path class="cls-3" d="M-197.4-16.5c-.9,0-1.5.7-1.5,1.6,0,.4.2.8.5,1.1.3.3.7.5,1.1.5h0c.4,0,.8-.2,1.1-.5.3-.3.5-.7.5-1.1,0-.9-.7-1.6-1.6-1.6ZM-197.8-14.9c0-.1,0-.2.1-.3,0,0,.2-.1.3-.1.2,0,.4.2.4.4,0,.1,0,.2-.1.3,0,0-.2.1-.3.1-.2,0-.4-.2-.4-.4ZM-197.4-13.4h0Z"/>
    <path class="cls-3" d="M-204.5-16.5h0c-.4,0-.8.2-1.1.5-.3.3-.5.7-.5,1.1,0,.8.7,1.5,1.6,1.5h0c.9,0,1.6-.7,1.6-1.5,0-.9-.7-1.6-1.5-1.6ZM-204.5-15.4h0c.2,0,.4.2.4.4,0,.2-.2.4-.4.4h0c-.2,0-.4-.2-.4-.4,0-.2.2-.4.4-.4ZM-204.5-13.4h0Z"/>
  </g>
  <path class="cls-6" d="M-140.6-22.9c0,.3,0,.6-.2.9-.2.8-.6,1.5-1.1,2.2-.8,1-1.7,1.9-2.7,2.7-1.1,1-2.3,2-3.4,2.9-.4.4-.9.4-1.3,0-1.5-1.3-3-2.6-4.4-3.9-.7-.7-1.4-1.4-2-2.2-.5-.8-.9-1.6-.9-2.6,0,0,0,0,0-.1v-.7s0-.1,0-.2c0-.9.4-1.8.9-2.5.8-1,1.8-1.6,3.1-1.8,1.5-.1,2.6.4,3.6,1.5.1.1.2.3.3.4.2-.3.4-.5.7-.7,1.2-1.1,2.6-1.4,4.2-.9,1.6.5,2.5,1.7,3,3.3,0,.3.1.6.2.9,0,.2,0,.5,0,.7ZM-148.6-14.8s0,0,0,0c1.2-1,2.3-2,3.5-3,.8-.7,1.7-1.5,2.3-2.4.5-.7.9-1.5,1.1-2.3.1-1.1,0-2.1-.7-3-1.1-1.7-3.7-2.1-5.2-.4-.2.2-.4.5-.6.8-.3.4-.8.5-1.1,0,0,0,0-.1-.1-.2-.3-.4-.6-.8-1-1.1-1.5-1.1-3.6-.7-4.7.8-1,1.5-1,3-.2,4.6.4.8,1,1.5,1.7,2.1.9.8,1.8,1.6,2.7,2.5.7.6,1.4,1.2,2.1,1.8Z"/>
  <polygon class="cls-7" points="-339.9 168.6 -314.9 143.6 -289.9 168.6 -339.9 168.6"/>
  <path class="cls-8" d="M-289.3,42.4c-13.8,0-25,10.4-25,23.1s4,13.9,9.4,18h0v11.1c0,.5.6.8,1,.5l9.5-7h.2c1.6.4,3.2.5,4.9.5,13.8,0,25-10.4,25-23.1s-11.2-23.1-25-23.1M-297.7,71.4c2.5,0,4.5-1.5,5.2-3.7h3.6c-.9,4.4-4.3,7.2-8.8,7.2s-9.4-3.9-9.4-9.4,4.2-9.4,9.4-9.4,8,2.9,8.8,7.4h-3.6c-.5-2.4-2.7-3.9-5.2-3.9-3.5,0-5.9,2.5-5.9,5.9,0,3.4,2.7,5.9,5.9,5.9M-273.8,74.6h-3.3v-7.5c0-1.7-1-2.7-2.5-2.7s-2.8,1.1-2.8,3.2v7h-3.3v-18.3h3.3v6.9c.8-1.2,2.1-1.8,3.8-1.8s2.6.5,3.5,1.4c.9,1,1.4,2.2,1.4,3.9v7.9h0Z"/>
  <path class="cls-2" d="M-204.7-76.1c-6.6,0-11.9,5.1-11.9,11.3s1.9,6.8,4.5,8.8h0v5.4c0,.3.3.4.5.2l4.5-3.4h0c.8.2,1.5.3,2.3.3,6.6,0,11.9-5.1,11.9-11.3s-5.3-11.3-11.9-11.3M-208.7-61.9c1.2,0,2.2-.7,2.5-1.8h1.7c-.4,2.1-2,3.5-4.2,3.5s-4.5-1.9-4.5-4.6,2-4.6,4.5-4.6,3.8,1.4,4.2,3.6h-1.7c-.3-1.2-1.3-1.9-2.5-1.9-1.7,0-2.8,1.2-2.8,2.9,0,1.7,1.3,2.9,2.8,2.9M-197.3-60.4h-1.6v-3.7c0-.8-.5-1.3-1.2-1.3s-1.3.5-1.3,1.6v3.4h-1.6v-9h1.6v3.4c.4-.6,1-.9,1.8-.9s1.2.2,1.7.7c.4.5.7,1.1.7,1.9v3.9h0Z"/>
  <text class="cls-12" transform="translate(21.6 -18.4)"><tspan x="0" y="0">카톡 상담</tspan></text>
  <text class="cls-9" transform="translate(22.3 -81.4)"><tspan x="0" y="0">카톡 상담</tspan></text>
  <path class="cls-2" d="M11.7-36.6c-4.1,0-7.4,3.1-7.4,7s1.2,4.2,2.8,5.5h0v3.4c0,.2.2.2.3.2l2.8-2.1h0c.5.1,1,.2,1.5.2,4.1,0,7.4-3.1,7.4-7s-3.3-7-7.4-7M9.2-27.8c.7,0,1.3-.4,1.5-1.1h1.1c-.3,1.3-1.3,2.2-2.6,2.2s-2.8-1.2-2.8-2.8,1.2-2.8,2.8-2.8,2.4.9,2.6,2.2h-1.1c-.2-.7-.8-1.2-1.5-1.2-1,0-1.7.8-1.7,1.8,0,1,.8,1.8,1.7,1.8M16.3-26.8h-1v-2.3c0-.5-.3-.8-.8-.8s-.8.3-.8,1v2.1h-1v-5.6h1v2.1c.2-.4.6-.5,1.1-.5s.8.1,1,.4c.3.3.4.7.4,1.2v2.4h0Z"/>
  <rect class="cls-4" x="-108" y="-63.5" width="100" height="50" rx="10" ry="10"/>
  <text class="cls-10" transform="translate(-73.6 -43)"><tspan x="0" y="0">카카오톡</tspan><tspan x="14.3" y="20">상담</tspan></text>
  <path class="cls-2" d="M-90.6-50.3c-7.2,0-13,5.5-13,12.3s2,7.4,4.9,9.6h0v5.9c0,.3.3.4.5.3l4.9-3.8h.1c.8.2,1.7.3,2.5.3,7.2,0,13-5.5,13-12.3s-5.8-12.3-13-12.3M-94.9-34.9c1.3,0,2.4-.8,2.7-2h1.9c-.5,2.3-2.2,3.8-4.6,3.8s-4.9-2.1-4.9-5,2.2-5,4.9-5,4.1,1.6,4.6,3.9h-1.9c-.3-1.3-1.4-2.1-2.7-2.1-1.8,0-3.1,1.3-3.1,3.2,0,1.8,1.4,3.1,3.1,3.1M-82.5-33.2h-1.7v-4c0-.9-.5-1.4-1.3-1.4s-1.5.6-1.5,1.7v3.7h-1.7v-9.8h1.7v3.7c.4-.6,1.1-1,2-1s1.3.2,1.8.8c.5.5.7,1.2.7,2.1v4.2h0Z"/>
  <rect class="cls-4" y="0" width="100" height="50" rx="10" ry="10"/>
  <g class="cls-14">
    <path class="cls-2" d="M44.2,14.5c-.4,1.2-1,2.4-2,3.5s-2.2,2-3.9,2.8l-.8-1.1c1.2-.6,2.3-1.3,3.1-2s1.4-1.6,1.9-2.5l-4.6.4-.2-1.3,5.3-.4c.2-.7.3-1.5.4-2.3h-4.9v-1.2h6.4c0,1.5-.2,2.9-.6,4.1ZM48.4,14.6h2.2v1.2h-2.2v7.2h-1.5v-14.1h1.5v5.6Z"/>
    <path class="cls-2" d="M57.7,14.5c-.4,1.2-1,2.4-2,3.5s-2.2,2-3.9,2.8l-.8-1.1c1.2-.6,2.3-1.3,3.1-2,.8-.8,1.4-1.6,1.9-2.5l-4.6.4-.2-1.3,5.3-.4c.2-.7.3-1.5.4-2.3h-4.9v-1.2h6.4c0,1.5-.2,2.9-.6,4.1ZM61.9,14.6h2.2v1.2h-2.2v7.2h-1.5v-14.1h1.5v5.6Z"/>
    <path class="cls-2" d="M73.6,10.3c.8.3,1.4.8,1.9,1.3.4.6.7,1.2.7,2s-.2,1.3-.6,1.8-.9,1-1.6,1.3c-.7.3-1.5.5-2.3.6v2.8h5.7v1.2h-12.9v-1.2h5.7v-2.8c-.9,0-1.7-.3-2.3-.6-.7-.3-1.2-.8-1.6-1.3-.4-.5-.6-1.2-.6-1.8s.2-1.4.7-2c.4-.6,1.1-1,1.9-1.3s1.7-.5,2.7-.5c1,0,1.9.2,2.7.5ZM69,11.3c-.6.2-1,.5-1.3.9-.3.4-.5.8-.5,1.3s.2,1,.5,1.4c.3.4.8.7,1.3.9.6.2,1.2.3,1.9.3.7,0,1.4-.1,1.9-.3.6-.2,1-.5,1.3-.9.3-.4.5-.8.5-1.4s-.2-.9-.5-1.3c-.3-.4-.8-.7-1.3-.9-.6-.2-1.2-.3-1.9-.3-.7,0-1.4,0-1.9.3Z"/>
    <path class="cls-2" d="M90.9,17.7h-12.9v-1.2h5.7v-1.3h-4v-5.9h9.6v1.2h-8.1v1.1h7.8v1.1h-7.8v1.2h8.2v1.1h-4.2v1.3h5.7v1.2ZM89.3,23.1h-1.5v-3h-8.3v-1.2h9.8v4.2Z"/>
    <path class="cls-2" d="M55.8,30.8c.3.6.7,1.1,1.2,1.6.5.5,1.2.8,1.9,1l-.8,1.2c-.8-.3-1.5-.7-2.1-1.3-.6-.6-1.1-1.2-1.4-1.9-.3.8-.8,1.6-1.4,2.2-.6.6-1.4,1.1-2.2,1.4l-.8-1.3c.8-.3,1.4-.7,2-1.2.5-.5,1-1.1,1.3-1.8.3-.7.4-1.4.4-2.1v-1.5h1.6v1.6c0,.7.1,1.3.4,1.9ZM59.8,36.2c.7.2,1.3.5,1.7.9s.6.9.6,1.5-.2,1.1-.6,1.5-1,.7-1.7.9c-.7.2-1.6.3-2.6.3-1,0-1.9,0-2.7-.3-.8-.2-1.3-.5-1.7-.9s-.6-.9-.6-1.5.2-1.1.6-1.5,1-.7,1.7-.9c.8-.2,1.6-.3,2.7-.3s1.9.1,2.6.3ZM55.3,37.3c-.5.1-.9.3-1.2.5-.3.2-.4.5-.4.8,0,.5.3.9.9,1.1.6.3,1.4.4,2.5.4,1.1,0,1.9-.1,2.5-.4.6-.3.9-.6.9-1.1s-.3-.8-.9-1.1-1.4-.4-2.5-.4-1.3,0-1.8.2ZM61.9,30.3h2.2v1.3h-2.2v3.9h-1.6v-9h1.6v3.7Z"/>
    <path class="cls-2" d="M71.8,28.8h-5v4.1c1.5,0,2.7,0,3.6-.1.9,0,1.9-.2,2.8-.4l.2,1.3c-1,.2-1.9.3-2.9.4-1,0-2.3,0-4.1,0h-1.2v-6.7h6.6v1.3ZM76.2,41.3h-9.5v-5.5h9.5v5.5ZM68.2,40h6.4v-3h-6.4v3ZM76.2,30.1h2.2v1.3h-2.2v3.6h-1.6v-8.4h1.6v3.5Z"/>
  </g>
  <path class="cls-2" d="M19.4,10.9c-7.2,0-13,5.5-13,12.3s2,7.4,4.9,9.6h0v5.9c0,.3.3.4.5.3l4.9-3.8h.1c.8.2,1.7.3,2.5.3,7.2,0,13-5.5,13-12.3s-5.8-12.3-13-12.3M15.1,26.4c1.3,0,2.4-.8,2.7-2h1.9c-.5,2.3-2.2,3.8-4.6,3.8s-4.9-2.1-4.9-5,2.2-5,4.9-5,4.1,1.6,4.6,3.9h-1.9c-.3-1.3-1.4-2.1-2.7-2.1-1.8,0-3.1,1.3-3.1,3.2,0,1.8,1.4,3.1,3.1,3.1M27.5,28h-1.7v-4c0-.9-.5-1.4-1.3-1.4s-1.5.6-1.5,1.7v3.7h-1.7v-9.8h1.7v3.7c.4-.6,1.1-1,2-1s1.3.2,1.8.8c.5.5.7,1.2.7,2.1v4.2h0Z"/>
  <rect class="cls-4" x="117" y="43.1" width="100" height="50" rx="10" ry="10"/>
  <g class="cls-14">
    <path class="cls-2" d="M156.6,66.4c-.4,1.4-1.2,2.7-2.2,3.9s-2.5,2.2-4.3,3.1l-.9-1.2c1.4-.7,2.5-1.4,3.4-2.3s1.6-1.8,2.1-2.8l-5.2.5-.2-1.4,5.9-.4c.2-.8.4-1.6.4-2.6h-5.5v-1.4h7.2c0,1.7-.2,3.2-.6,4.6ZM161.3,66.5h2.4v1.4h-2.4v8.1h-1.7v-15.7h1.7v6.3Z"/>
    <path class="cls-2" d="M178.1,70h-14.4v-1.3h6.4v-1.5h-4.5v-6.5h10.8v1.3h-9.1v1.3h8.7v1.3h-8.7v1.4h9.2v1.3h-4.7v1.5h6.4v1.3ZM176.3,75.9h-1.7v-3.4h-9.2v-1.3h10.9v4.7Z"/>
    <path class="cls-2" d="M187.8,64.7c.3.6.7,1.2,1.3,1.7.6.5,1.2.9,2,1.1l-.9,1.3c-.8-.3-1.6-.7-2.2-1.3-.6-.6-1.1-1.3-1.5-2.1-.3.9-.8,1.7-1.5,2.3-.7.7-1.4,1.2-2.4,1.5l-.9-1.3c.8-.3,1.5-.7,2.1-1.2.6-.5,1-1.2,1.3-1.9s.5-1.4.5-2.2v-1.5h1.7v1.7c0,.7.2,1.4.5,2ZM192,70.4c.8.2,1.4.6,1.8,1,.4.4.6,1,.6,1.6s-.2,1.1-.6,1.6-1,.8-1.8,1-1.7.3-2.8.3c-1.1,0-2-.1-2.8-.3s-1.4-.6-1.8-1-.6-1-.6-1.6.2-1.1.6-1.6c.4-.4,1-.8,1.8-1,.8-.2,1.7-.3,2.8-.3s2,.1,2.8.3ZM187.2,71.6c-.5.1-1,.3-1.2.5s-.4.5-.4.9c0,.5.3.9.9,1.2s1.5.4,2.7.4c1.1,0,2-.2,2.7-.4s.9-.7.9-1.2-.3-.9-.9-1.2-1.5-.4-2.6-.4-1.4,0-2,.2ZM194.2,64.1h2.3v1.4h-2.3v4.1h-1.7v-9.5h1.7v4Z"/>
    <path class="cls-2" d="M204.2,62.6h-5.3v4.3c1.6,0,2.8,0,3.8-.1,1,0,2-.2,2.9-.4l.2,1.3c-1,.2-2,.4-3.1.4-1,0-2.5.1-4.3.1h-1.2v-7h7v1.4ZM208.9,75.7h-10.1v-5.9h10.1v5.9ZM200.5,74.4h6.8v-3.2h-6.8v3.2ZM208.9,63.9h2.3v1.4h-2.3v3.8h-1.7v-8.9h1.7v3.7Z"/>
  </g>
  <path class="cls-2" d="M132.3,55.4c-6.4,0-11.7,5-11.7,11.1s1.8,6.7,4.4,8.7h0v5.3c0,.3.3.4.5.2l4.4-3.4h0c.7.2,1.5.3,2.3.3,6.4,0,11.7-5,11.7-11.1s-5.2-11.1-11.7-11.1M128.4,69.3c1.1,0,2.1-.7,2.4-1.8h1.7c-.4,2.1-2,3.5-4.1,3.5s-4.4-1.9-4.4-4.5,1.9-4.5,4.4-4.5,3.7,1.4,4.1,3.5h-1.7c-.3-1.2-1.3-1.9-2.4-1.9-1.6,0-2.7,1.2-2.7,2.8,0,1.6,1.2,2.8,2.7,2.8M139.6,70.8h-1.6v-3.6c0-.8-.5-1.3-1.2-1.3s-1.3.5-1.3,1.5v3.3h-1.6v-8.8h1.6v3.3c.4-.6,1-.9,1.8-.9s1.2.2,1.6.7c.4.5.6,1.1.6,1.9v3.8h0Z"/>
  <g>
    <path class="cls-4" d="M10,126.2c-5.2,0-9.5-5.7-9.5-12.6v-15.8c0-7,4.3-12.6,9.5-12.6h80c5.2,0,9.5,5.7,9.5,12.6v15.8c0,7-4.3,12.6-9.5,12.6H10Z"/>
    <path class="cls-1" d="M90,85.7c5,0,9,5.4,9,12.1v15.8c0,6.7-4,12.1-9,12.1H10c-5,0-9-5.4-9-12.1v-15.8c0-6.7,4-12.1,9-12.1h80M90,84.7H10c-5.5,0-10,5.9-10,13.1v15.8c0,7.2,4.5,13.1,10,13.1h80c5.5,0,10-5.9,10-13.1v-15.8c0-7.2-4.5-13.1-10-13.1h0Z"/>
  </g>
  <g class="cls-14">
    <path class="cls-2" d="M44.7,104.4c-.3,1.1-.9,2.1-1.7,3s-2,1.8-3.4,2.5l-.8-1.1c1-.5,1.9-1.1,2.6-1.7.7-.6,1.2-1.3,1.6-2l-3.8.4-.2-1.3,4.5-.3c.2-.6.3-1.2.3-1.8h-4.2v-1.2h5.7c0,1.4-.2,2.6-.5,3.7ZM48.4,104.3h1.8v1.2h-1.8v6.2h-1.5v-12.3h1.5v4.8Z"/>
    <path class="cls-2" d="M62.1,107.3h-11.3v-1.2h4.9v-1h-3.4v-5.2h8.5v1.2h-7v.8h6.7v1.1h-6.7v.9h7.1v1.2h-3.6v1h4.9v1.2ZM60.7,111.9h-1.5v-2.5h-7.1v-1.2h8.6v3.7Z"/>
    <path class="cls-2" d="M71,103c.2.5.6.9,1,1.3s1,.7,1.6.8l-.8,1.2c-.7-.2-1.2-.5-1.7-1s-.9-.9-1.1-1.5c-.3.7-.7,1.2-1.2,1.7s-1.1.9-1.8,1.1l-.8-1.2c.6-.2,1.2-.5,1.6-1,.4-.4.8-.9,1-1.4s.3-1.1.3-1.7v-1.2h1.5v1.3c0,.5.1,1,.3,1.5ZM74.2,107.4c.6.2,1.1.5,1.4.8s.5.8.5,1.3c0,.5-.2.9-.5,1.3-.3.4-.8.6-1.4.8-.6.2-1.4.3-2.2.3s-1.6,0-2.2-.3c-.6-.2-1.1-.5-1.4-.8-.3-.4-.5-.8-.5-1.3s.2-.9.5-1.3c.3-.4.8-.6,1.4-.8.6-.2,1.4-.3,2.2-.3.8,0,1.6,0,2.2.3ZM70,108.7c-.5.2-.7.5-.7.8s.2.7.7.9c.5.2,1.1.3,2,.3s1.5,0,2-.3c.5-.2.7-.5.7-.9s-.2-.6-.7-.8c-.5-.2-1.1-.3-2-.3s-1.5,0-2,.3ZM76,102.5h1.7v1.3h-1.7v3.1h-1.5v-7.4h1.5v3Z"/>
    <path class="cls-2" d="M84.4,101.5h-4v3.2c1.2,0,2.1,0,2.9,0s1.5-.2,2.2-.3l.2,1.2c-.8.2-1.6.3-2.4.3-.8,0-1.9,0-3.4,0h-1v-5.6h5.5v1.2ZM88.1,111.7h-8v-4.7h8v4.7ZM81.6,110.5h5v-2.3h-5v2.3ZM88.1,102.4h1.7v1.3h-1.7v2.8h-1.5v-7h1.5v2.9Z"/>
  </g>
  <path class="cls-2" d="M20,93.1c-6.4,0-11.6,4.9-11.6,11s1.8,6.6,4.3,8.6h0v5.3c0,.2.3.4.5.2l4.4-3.4h0c.7.2,1.5.3,2.3.3,6.4,0,11.6-4.9,11.6-11s-5.2-11-11.6-11M16.1,106.9c1.1,0,2.1-.7,2.4-1.8h1.7c-.4,2.1-2,3.4-4.1,3.4s-4.4-1.9-4.4-4.5,1.9-4.5,4.4-4.5,3.7,1.4,4.1,3.5h-1.7c-.3-1.2-1.3-1.9-2.4-1.9-1.6,0-2.7,1.2-2.7,2.8,0,1.6,1.2,2.8,2.7,2.8M27.2,108.4h-1.5v-3.6c0-.8-.5-1.3-1.2-1.3s-1.3.5-1.3,1.5v3.3h-1.5v-8.7h1.5v3.3c.4-.6,1-.9,1.8-.9s1.2.2,1.6.7c.4.5.6,1.1.6,1.9v3.8h0Z"/>
  <image width="100" height="90" transform="translate(-224.6 243.9)" xlink:href="할부안내.jpg"/>
  <g>
    <g class="cls-14">
      <path class="cls-7" d="M30.2,168.4h7.9v1.5h-3v8.4h-1.8v-8.4h-3.1v-1.5Z"/>
      <path class="cls-7" d="M47.3,176c-.4.8-.9,1.4-1.6,1.8-.7.4-1.5.6-2.3.6s-1.6-.2-2.3-.6c-.7-.4-1.2-1-1.6-1.8-.4-.8-.6-1.7-.6-2.7s.2-1.9.6-2.7.9-1.4,1.6-1.8c.7-.4,1.5-.6,2.3-.6s1.6.2,2.3.6c.7.4,1.2,1,1.6,1.8s.6,1.7.6,2.7-.2,1.9-.6,2.7ZM45.7,171.4c-.2-.5-.6-.9-1-1.2-.4-.3-.9-.4-1.4-.4s-1,.1-1.4.4c-.4.3-.7.7-1,1.2-.2.5-.3,1.2-.3,1.9s.1,1.4.3,1.9c.2.5.6.9,1,1.2.4.3.9.4,1.4.4s1-.1,1.4-.4c.4-.3.7-.7,1-1.2.2-.5.3-1.2.3-1.9s-.1-1.4-.3-1.9Z"/>
      <path class="cls-7" d="M49.5,168.4h3.7c.7,0,1.4.1,1.9.4.5.3.9.7,1.2,1.2.3.5.4,1.1.4,1.7s-.1,1.2-.4,1.7c-.3.5-.7.9-1.2,1.2-.5.3-1.2.4-1.9.4h-1.9v3.4h-1.8v-9.9ZM52.9,173.5c.6,0,1.1-.2,1.5-.5.3-.3.5-.8.5-1.3s-.2-1-.5-1.3c-.3-.3-.8-.5-1.5-.5h-1.7v3.6h1.7Z"/>
    </g>
    <polygon class="cls-7" points="59.8 175.8 64.8 170.8 69.8 175.8 59.8 175.8"/>
  </g>
  <image width="60" height="61" transform="translate(114.9 -37.6)" xlink:href="nav_kakao_btn-1.png"/>
</svg>