<?xml version="1.0" encoding="UTF-8"?>
<svg id="Layer_1" data-name="Layer 1" xmlns="http://www.w3.org/2000/svg" version="1.1" xmlns:xlink="http://www.w3.org/1999/xlink" viewBox="0 0 100 35">
  <defs>
    <style>
      .cls-1 {
        fill: #ccc;
      }

      .cls-1, .cls-2, .cls-3, .cls-4, .cls-5, .cls-6, .cls-7 {
        stroke-width: 0px;
      }

      .cls-2, .cls-8, .cls-9 {
        fill: #242424;
      }

      .cls-8, .cls-10 {
        font-family: Pretendard-Regular, Pretendard;
        font-size: 12px;
      }

      .cls-3, .cls-10 {
        fill: #424242;
      }

      .cls-11, .cls-10, .cls-9 {
        isolation: isolate;
      }

      .cls-4 {
        fill: #083e88;
      }

      .cls-5 {
        fill: #ff5050;
        fill-rule: evenodd;
      }

      .cls-9 {
        font-family: Pretendard-SemiBold, Pretendard;
        font-size: 14px;
        font-weight: 600;
      }

      .cls-12 {
        fill: none;
        stroke: #ccc;
        stroke-miterlimit: 10;
      }

      .cls-6 {
        fill: #fff;
      }

      .cls-7 {
        fill: #fae100;
      }
    </style>
  </defs>
  <g>
    <path class="cls-6" d="M-214.6-11.5c-5.2,0-9.5-4.7-9.5-10.4v-13.1c0-5.7,4.3-10.4,9.5-10.4h28c5.2,0,9.5,4.7,9.5,10.4v13.1c0,5.7-4.3,10.4-9.5,10.4h-28Z"/>
    <path class="cls-1" d="M-186.6-44.9c5,0,9,4.4,9,9.8v13.1c0,5.4-4,9.8-9,9.8h-28c-5,0-9-4.4-9-9.8v-13.1c0-5.4,4-9.8,9-9.8h28M-186.6-46h-28c-5.5,0-10,4.9-10,10.9v13.1c0,6,4.5,10.9,10,10.9h28c5.5,0,10-4.9,10-10.9v-13.1c0-6-4.5-10.9-10-10.9h0Z"/>
  </g>
  <g>
    <path class="cls-6" d="M-162.6-11.5c-5.2,0-9.5-4.7-9.5-10.4v-13.1c0-5.7,4.3-10.4,9.5-10.4h28c5.2,0,9.5,4.7,9.5,10.4v13.1c0,5.7-4.3,10.4-9.5,10.4h-28Z"/>
    <path class="cls-1" d="M-134.6-44.9c5,0,9,4.4,9,9.8v13.1c0,5.4-4,9.8-9,9.8h-28c-5,0-9-4.4-9-9.8v-13.1c0-5.4,4-9.8,9-9.8h28M-134.6-46h-28c-5.5,0-10,4.9-10,10.9v13.1c0,6,4.5,10.9,10,10.9h28c5.5,0,10-4.9,10-10.9v-13.1c0-6-4.5-10.9-10-10.9h0Z"/>
  </g>
  <path class="cls-4" d="M100,24.1c0,6-4.5,10.9-10,10.9H10c-5.5,0-10-4.9-10-10.9v-13.1C0,4.9,4.5,0,10,0h80c5.5,0,10,4.9,10,10.9v13.1Z"/>
  <g>
    <g>
      <path class="cls-6" d="M-214.6,226.8c-5.2,0-9.5-4.3-9.5-9.5V7.3c0-5.2,4.3-9.5,9.5-9.5h80c5.2,0,9.5,4.3,9.5,9.5v210c0,5.2-4.3,9.5-9.5,9.5h-80Z"/>
      <path class="cls-1" d="M-134.6-1.7c5,0,9,4,9,9v210c0,5-4,9-9,9h-80c-5,0-9-4-9-9V7.3c0-5,4-9,9-9h80M-134.6-2.7h-80c-5.5,0-10,4.5-10,10v210c0,5.5,4.5,10,10,10h80c5.5,0,10-4.5,10-10V7.3c0-5.5-4.5-10-10-10h0Z"/>
    </g>
    <text class="cls-10" transform="translate(-203.4 15.8)"><tspan x="0" y="0">최근 본 상품</tspan></text>
    <g>
      <image class="cls-11" width="78" height="78" transform="translate(-213.6 32.3)" xlink:href="F63112CF.png"/>
      <rect class="cls-12" x="-213.6" y="32.3" width="78" height="78"/>
    </g>
    <g>
      <image class="cls-11" width="78" height="79" transform="translate(-213.1 127.2) scale(1)" xlink:href="F63112CD.png"/>
      <rect class="cls-12" x="-213.6" y="127.2" width="78" height="78"/>
    </g>
  </g>
  <path class="cls-6" d="M-124.6,358.7c0,6-4.5,10.9-10,10.9h-80c-5.5,0-10-4.9-10-10.9v-13.1c0-6,4.5-10.9,10-10.9h80c5.5,0,10,4.9,10,10.9v13.1Z"/>
  <text class="cls-8" transform="translate(-203.5 355.5)"><tspan x="0" y="0">1:1 문의하기</tspan></text>
  <path class="cls-6" d="M-124.6,402.1c0,6-4.5,10.9-10,10.9h-80c-5.5,0-10-4.9-10-10.9v-13.1c0-6,4.5-10.9,10-10.9h80c5.5,0,10,4.9,10,10.9v13.1Z"/>
  <text class="cls-8" transform="translate(-208.6 398.9)"><tspan x="0" y="0">쿨젠 링크 모음</tspan></text>
  <g>
    <path class="cls-7" d="M-214.6-54c-5.2,0-9.5-4.7-9.5-10.4v-13.1c0-5.8,4.3-10.4,9.5-10.4h80c5.2,0,9.5,4.7,9.5,10.4v13.1c0,5.8-4.3,10.4-9.5,10.4h-80Z"/>
    <path class="cls-1" d="M-134.6-87.5c5,0,9,4.5,9,9.9v13.1c0,5.5-4,9.9-9,9.9h-80c-5,0-9-4.5-9-9.9v-13.1c0-5.5,4-9.9,9-9.9h80M-134.6-88.5h-80c-5.5,0-10,4.9-10,10.9v13.1c0,6,4.5,10.9,10,10.9h80c5.5,0,10-4.9,10-10.9v-13.1c0-6-4.5-10.9-10-10.9h0Z"/>
  </g>
  <text class="cls-9" transform="translate(-187.3 -64.6)"><tspan x="0" y="0">카톡 상담</tspan></text>
  <g>
    <path class="cls-3" d="M-193.7-32.3c-.1-.1-.3-.2-.5-.2h-12.8c0-.2,0-.3-.1-.5,0-.4-.2-.8-.3-1.1-.3-1-1-1.7-1.9-1.9-.4,0-.8,0-1.2,0-.1,0-.3,0-.4,0h0c-.4,0-.6.2-.6.6s.2.6.6.6c0,0,.2,0,.3,0h.7c.8,0,1.3.5,1.5,1.2.7,2.8,1.3,5.6,2,8.4.1.4.3.6.7.6h9.7c.4,0,.6-.1.7-.5l.9-3.3c.3-1,.6-2.1.8-3.1,0-.2,0-.4,0-.6ZM-194.9-31.4l-.5,1.7c-.3,1.2-.7,2.4-1,3.6,0,.1,0,.2-.2.2-1.9,0-3.9,0-5.5,0h-3.4l-1.3-5.4h11.9Z"/>
    <path class="cls-3" d="M-197.4-24c-.9,0-1.5.7-1.5,1.6,0,.4.2.8.5,1.1.3.3.7.5,1.1.5h0c.4,0,.8-.2,1.1-.5.3-.3.5-.7.5-1.1,0-.9-.7-1.6-1.6-1.6ZM-197.8-22.4c0-.1,0-.2.1-.3,0,0,.2-.1.3-.1.2,0,.4.2.4.4,0,.1,0,.2-.1.3,0,0-.2.1-.3.1-.2,0-.4-.2-.4-.4ZM-197.4-20.9h0Z"/>
    <path class="cls-3" d="M-204.5-24h0c-.4,0-.8.2-1.1.5-.3.3-.5.7-.5,1.1,0,.8.7,1.5,1.6,1.5h0c.9,0,1.6-.7,1.6-1.5,0-.9-.7-1.6-1.5-1.6ZM-204.5-22.9h0c.2,0,.4.2.4.4,0,.2-.2.4-.4.4h0c-.2,0-.4-.2-.4-.4,0-.2.2-.4.4-.4ZM-204.5-20.9h0Z"/>
  </g>
  <path class="cls-5" d="M-140.6-30.4c0,.3,0,.6-.2.9-.2.8-.6,1.5-1.1,2.2-.8,1-1.7,1.9-2.7,2.7-1.1,1-2.3,2-3.4,2.9-.4.4-.9.4-1.3,0-1.5-1.3-3-2.6-4.4-3.9-.7-.7-1.4-1.4-2-2.2-.5-.8-.9-1.6-.9-2.6,0,0,0,0,0-.1v-.7s0-.1,0-.2c0-.9.4-1.8.9-2.5.8-1,1.8-1.6,3.1-1.8,1.5-.1,2.6.4,3.6,1.5.1.1.2.3.3.4.2-.3.4-.5.7-.7,1.2-1.1,2.6-1.4,4.2-.9,1.6.5,2.5,1.7,3,3.3,0,.3.1.6.2.9,0,.2,0,.5,0,.7ZM-148.6-22.3s0,0,0,0c1.2-1,2.3-2,3.5-3,.8-.7,1.7-1.5,2.3-2.4.5-.7.9-1.5,1.1-2.3.1-1.1,0-2.1-.7-3-1.1-1.7-3.7-2.1-5.2-.4-.2.2-.4.5-.6.8-.3.4-.8.5-1.1,0,0,0,0-.1-.1-.2-.3-.4-.6-.8-1-1.1-1.5-1.1-3.6-.7-4.7.8-1,1.5-1,3-.2,4.6.4.8,1,1.5,1.7,2.1.9.8,1.8,1.6,2.7,2.5.7.6,1.4,1.2,2.1,1.8Z"/>
  <polygon class="cls-6" points="-339.9 161.1 -314.9 136.1 -289.9 161.1 -339.9 161.1"/>
  <path class="cls-7" d="M-289.3,34.9c-13.8,0-25,10.4-25,23.1s4,13.9,9.4,18h0v11.1c0,.5.6.8,1,.5l9.5-7h.2c1.6.4,3.2.5,4.9.5,13.8,0,25-10.4,25-23.1s-11.2-23.1-25-23.1M-297.7,63.9c2.5,0,4.5-1.5,5.2-3.7h3.6c-.9,4.4-4.3,7.2-8.8,7.2s-9.4-3.9-9.4-9.4,4.2-9.4,9.4-9.4,8,2.9,8.8,7.4h-3.6c-.5-2.4-2.7-3.9-5.2-3.9-3.5,0-5.9,2.5-5.9,5.9,0,3.4,2.7,5.9,5.9,5.9M-273.8,67.1h-3.3v-7.5c0-1.7-1-2.7-2.5-2.7s-2.8,1.1-2.8,3.2v7h-3.3v-18.3h3.3v6.9c.8-1.2,2.1-1.8,3.8-1.8s2.6.5,3.5,1.4c.9,1,1.4,2.2,1.4,3.9v7.9h0Z"/>
  <path class="cls-2" d="M-204.7-83.6c-6.6,0-11.9,5.1-11.9,11.3s1.9,6.8,4.5,8.8h0v5.4c0,.3.3.4.5.2l4.5-3.4h0c.8.2,1.5.3,2.3.3,6.6,0,11.9-5.1,11.9-11.3s-5.3-11.3-11.9-11.3M-208.7-69.4c1.2,0,2.2-.7,2.5-1.8h1.7c-.4,2.1-2,3.5-4.2,3.5s-4.5-1.9-4.5-4.6,2-4.6,4.5-4.6,3.8,1.4,4.2,3.6h-1.7c-.3-1.2-1.3-1.9-2.5-1.9-1.7,0-2.8,1.2-2.8,2.9,0,1.7,1.3,2.9,2.8,2.9M-197.3-67.9h-1.6v-3.7c0-.8-.5-1.3-1.2-1.3s-1.3.5-1.3,1.6v3.4h-1.6v-9h1.6v3.4c.4-.6,1-.9,1.8-.9s1.2.2,1.7.7c.4.5.7,1.1.7,1.9v3.9h0Z"/>
  <g>
    <path class="cls-7" d="M10-56.4c-5.2,0-9.5-5.7-9.5-12.6v-15.8c0-7,4.3-12.6,9.5-12.6h80c5.2,0,9.5,5.7,9.5,12.6v15.8c0,7-4.3,12.6-9.5,12.6H10Z"/>
    <path class="cls-1" d="M90-96.9c5,0,9,5.4,9,12.1v15.8c0,6.7-4,12.1-9,12.1H10c-5,0-9-5.4-9-12.1v-15.8c0-6.7,4-12.1,9-12.1h80M90-97.9H10c-5.5,0-10,5.9-10,13.1v15.8c0,7.2,4.5,13.1,10,13.1h80c5.5,0,10-5.9,10-13.1v-15.8c0-7.2-4.5-13.1-10-13.1h0Z"/>
  </g>
  <g class="cls-11">
    <path class="cls-2" d="M44.7-78.2c-.3,1.1-.9,2.1-1.7,3s-2,1.8-3.4,2.5l-.8-1.1c1-.5,1.9-1.1,2.6-1.7.7-.6,1.2-1.3,1.6-2l-3.8.4-.2-1.3,4.5-.3c.2-.6.3-1.2.3-1.8h-4.2v-1.2h5.7c0,1.4-.2,2.6-.5,3.7ZM48.4-78.2h1.8v1.2h-1.8v6.2h-1.5v-12.3h1.5v4.8Z"/>
    <path class="cls-2" d="M62.1-75.3h-11.3v-1.2h4.9v-1h-3.4v-5.2h8.5v1.2h-7v.8h6.7v1.1h-6.7v.9h7.1v1.2h-3.6v1h4.9v1.2ZM60.7-70.7h-1.5v-2.5h-7.1v-1.2h8.6v3.7Z"/>
    <path class="cls-2" d="M71-79.6c.2.5.6.9,1,1.3s1,.7,1.6.8l-.8,1.2c-.7-.2-1.2-.5-1.7-1s-.9-.9-1.1-1.5c-.3.7-.7,1.2-1.2,1.7s-1.1.9-1.8,1.1l-.8-1.2c.6-.2,1.2-.5,1.6-1,.4-.4.8-.9,1-1.4s.3-1.1.3-1.7v-1.2h1.5v1.3c0,.5.1,1,.3,1.5ZM74.2-75.1c.6.2,1.1.5,1.4.8s.5.8.5,1.3c0,.5-.2.9-.5,1.3-.3.4-.8.6-1.4.8-.6.2-1.4.3-2.2.3s-1.6,0-2.2-.3c-.6-.2-1.1-.5-1.4-.8-.3-.4-.5-.8-.5-1.3s.2-.9.5-1.3c.3-.4.8-.6,1.4-.8.6-.2,1.4-.3,2.2-.3.8,0,1.6,0,2.2.3ZM70-73.9c-.5.2-.7.5-.7.8s.2.7.7.9c.5.2,1.1.3,2,.3s1.5,0,2-.3c.5-.2.7-.5.7-.9s-.2-.6-.7-.8c-.5-.2-1.1-.3-2-.3s-1.5,0-2,.3ZM76-80.1h1.7v1.3h-1.7v3.1h-1.5v-7.4h1.5v3Z"/>
    <path class="cls-2" d="M84.4-81h-4v3.2c1.2,0,2.1,0,2.9,0s1.5-.2,2.2-.3l.2,1.2c-.8.2-1.6.3-2.4.3-.8,0-1.9,0-3.4,0h-1v-5.6h5.5v1.2ZM88.1-70.9h-8v-4.7h8v4.7ZM81.6-72.1h5v-2.3h-5v2.3ZM88.1-80.2h1.7v1.3h-1.7v2.8h-1.5v-7h1.5v2.9Z"/>
  </g>
  <path class="cls-2" d="M20-92.1c-7.7,0-14,6-14,13.3s2.2,8,5.2,10.4h0v6.4c0,.3.3.5.6.3l5.3-4.1h.1c.9.2,1.8.3,2.8.3,7.7,0,14-6,14-13.3s-6.3-13.3-14-13.3M15.3-75.4c1.4,0,2.5-.8,2.9-2.1h2c-.5,2.5-2.4,4.2-4.9,4.2s-5.3-2.3-5.3-5.4,2.3-5.4,5.3-5.4,4.5,1.7,4.9,4.2h-2c-.3-1.4-1.5-2.3-2.9-2.3-2,0-3.3,1.5-3.3,3.4,0,2,1.5,3.4,3.3,3.4M28.7-73.6h-1.9v-4.3c0-1-.6-1.5-1.4-1.5s-1.6.6-1.6,1.8v4h-1.9v-10.5h1.9v4c.4-.7,1.2-1,2.1-1s1.4.3,1.9.8c.5.5.8,1.3.8,2.3v4.5h0Z"/>
  <image width="100" height="90" transform="translate(-224.6 236.4)" xlink:href="할부안내.jpg"/>
  <g>
    <g class="cls-11">
      <path class="cls-6" d="M30.2,12.6h7.9v1.5h-3v8.4h-1.8v-8.4h-3.1v-1.5Z"/>
      <path class="cls-6" d="M47.3,20.2c-.4.8-.9,1.4-1.6,1.8-.7.4-1.5.6-2.3.6s-1.6-.2-2.3-.6c-.7-.4-1.2-1-1.6-1.8-.4-.8-.6-1.7-.6-2.7s.2-1.9.6-2.7.9-1.4,1.6-1.8c.7-.4,1.5-.6,2.3-.6s1.6.2,2.3.6c.7.4,1.2,1,1.6,1.8s.6,1.7.6,2.7-.2,1.9-.6,2.7ZM45.7,15.6c-.2-.5-.6-.9-1-1.2-.4-.3-.9-.4-1.4-.4s-1,.1-1.4.4c-.4.3-.7.7-1,1.2-.2.5-.3,1.2-.3,1.9s.1,1.4.3,1.9c.2.5.6.9,1,1.2.4.3.9.4,1.4.4s1-.1,1.4-.4c.4-.3.7-.7,1-1.2.2-.5.3-1.2.3-1.9s-.1-1.4-.3-1.9Z"/>
      <path class="cls-6" d="M49.5,12.6h3.7c.7,0,1.4.1,1.9.4.5.3.9.7,1.2,1.2.3.5.4,1.1.4,1.7s-.1,1.2-.4,1.7c-.3.5-.7.9-1.2,1.2-.5.3-1.2.4-1.9.4h-1.9v3.4h-1.8v-9.9ZM52.9,17.6c.6,0,1.1-.2,1.5-.5.3-.3.5-.8.5-1.3s-.2-1-.5-1.3c-.3-.3-.8-.5-1.5-.5h-1.7v3.6h1.7Z"/>
    </g>
    <polygon class="cls-6" points="59.8 20 64.8 15 69.8 20 59.8 20"/>
  </g>
</svg>