<?xml version="1.0" encoding="UTF-8"?>
<svg id="Layer_1" data-name="Layer 1" xmlns="http://www.w3.org/2000/svg" version="1.1" viewBox="0 0 48 35">
  <defs>
    <style>
      .cls-1 {
        fill: #ccc;
      }

      .cls-1, .cls-2, .cls-3 {
        stroke-width: 0px;
      }

      .cls-2 {
        fill: #424242;
      }

      .cls-3 {
        fill: #fff;
      }
    </style>
  </defs>
  <g>
    <path class="cls-3" d="M10,34.5c-5.2,0-9.5-4.7-9.5-10.4v-13.1C.5,5.2,4.8.5,10,.5h28c5.2,0,9.5,4.7,9.5,10.4v13.1c0,5.7-4.3,10.4-9.5,10.4H10Z"/>
    <path class="cls-1" d="M38,1.1c5,0,9,4.4,9,9.8v13.1c0,5.4-4,9.8-9,9.8H10c-5,0-9-4.4-9-9.8v-13.1C1,5.5,5,1.1,10,1.1h28M38,0H10C4.5,0,0,4.9,0,10.9v13.1c0,6,4.5,10.9,10,10.9h28c5.5,0,10-4.9,10-10.9v-13.1c0-6-4.5-10.9-10-10.9h0Z"/>
  </g>
  <g>
    <path class="cls-2" d="M30.9,13.7c-.1-.1-.3-.2-.5-.2h-12.8c0-.2,0-.3-.1-.5,0-.4-.2-.8-.3-1.1-.3-1-1-1.7-1.9-1.9-.4,0-.8,0-1.2,0-.1,0-.3,0-.4,0h0c-.4,0-.6.2-.6.6s.2.6.6.6c0,0,.2,0,.3,0h.7c.8,0,1.3.5,1.5,1.2.7,2.8,1.3,5.6,2,8.4.1.4.3.6.7.6h9.7c.4,0,.6-.1.7-.5l.9-3.3c.3-1,.6-2.1.8-3.1,0-.2,0-.4,0-.6ZM29.7,14.6l-.5,1.7c-.3,1.2-.7,2.4-1,3.6,0,.1,0,.2-.2.2-1.9,0-3.9,0-5.5,0h-3.4l-1.3-5.4h11.9Z"/>
    <path class="cls-2" d="M27.3,22c-.9,0-1.5.7-1.5,1.6,0,.4.2.8.5,1.1.3.3.7.5,1.1.5h0c.4,0,.8-.2,1.1-.5.3-.3.5-.7.5-1.1,0-.9-.7-1.6-1.6-1.6ZM26.8,23.5c0-.1,0-.2.1-.3,0,0,.2-.1.3-.1.2,0,.4.2.4.4,0,.1,0,.2-.1.3,0,0-.2.1-.3.1-.2,0-.4-.2-.4-.4ZM27.3,25.1h0Z"/>
    <path class="cls-2" d="M20.1,22h0c-.4,0-.8.2-1.1.5-.3.3-.5.7-.5,1.1,0,.8.7,1.5,1.6,1.5h0c.9,0,1.6-.7,1.6-1.5,0-.9-.7-1.6-1.5-1.6ZM20.1,23.1h0c.2,0,.4.2.4.4,0,.2-.2.4-.4.4h0c-.2,0-.4-.2-.4-.4,0-.2.2-.4.4-.4ZM20.1,25.1h0Z"/>
  </g>
</svg>