<?xml version="1.0" encoding="UTF-8"?>
<svg id="Layer_1" data-name="Layer 1" xmlns="http://www.w3.org/2000/svg" version="1.1" viewBox="0 0 48 35">
  <defs>
    <style>
      .cls-1 {
        fill: #ccc;
      }

      .cls-1, .cls-2, .cls-3 {
        stroke-width: 0px;
      }

      .cls-2 {
        fill: #ff5050;
        fill-rule: evenodd;
      }

      .cls-3 {
        fill: #fff;
      }
    </style>
  </defs>
  <g>
    <path class="cls-3" d="M10,34.5c-5.2,0-9.5-4.7-9.5-10.4v-13.1C.5,5.2,4.8.5,10,.5h28c5.2,0,9.5,4.7,9.5,10.4v13.1c0,5.7-4.3,10.4-9.5,10.4H10Z"/>
    <path class="cls-1" d="M38,1.1c5,0,9,4.4,9,9.8v13.1c0,5.4-4,9.8-9,9.8H10c-5,0-9-4.4-9-9.8v-13.1C1,5.5,5,1.1,10,1.1h28M38,0H10C4.5,0,0,4.9,0,10.9v13.1c0,6,4.5,10.9,10,10.9h28c5.5,0,10-4.9,10-10.9v-13.1C48,4.9,43.5,0,38,0h0Z"/>
  </g>
  <path class="cls-2" d="M32,15.5c0,.3,0,.6-.2.9-.2.8-.6,1.5-1.1,2.2-.8,1-1.7,1.9-2.7,2.7-1.1,1-2.3,2-3.4,2.9-.4.4-.9.4-1.3,0-1.5-1.3-3-2.6-4.4-3.9-.7-.7-1.4-1.4-2-2.2-.5-.8-.9-1.6-.9-2.6,0,0,0,0,0-.1v-.7s0-.1,0-.2c0-.9.4-1.8.9-2.5.8-1,1.8-1.6,3.1-1.8,1.5-.1,2.6.4,3.6,1.5.1.1.2.3.3.4.2-.3.4-.5.7-.7,1.2-1.1,2.6-1.4,4.2-.9,1.6.5,2.5,1.7,3,3.3,0,.3.1.6.2.9,0,.2,0,.5,0,.7ZM24,23.7s0,0,0,0c1.2-1,2.3-2,3.5-3,.8-.7,1.7-1.5,2.3-2.4.5-.7.9-1.5,1.1-2.3.1-1.1,0-2.1-.7-3-1.1-1.7-3.7-2.1-5.2-.4-.2.2-.4.5-.6.8-.3.4-.8.5-1.1,0,0,0,0-.1-.1-.2-.3-.4-.6-.8-1-1.1-1.5-1.1-3.6-.7-4.7.8-1,1.5-1,3-.2,4.6.4.8,1,1.5,1.7,2.1.9.8,1.8,1.6,2.7,2.5.7.6,1.4,1.2,2.1,1.8Z"/>
</svg>