<?xml version="1.0" encoding="utf-8"?>
<!-- Generator: Adobe Illustrator 16.0.0, SVG Export Plug-In . SVG Version: 6.00 Build 0)  -->
<!DOCTYPE svg PUBLIC "-//W3C//DTD SVG 1.1//EN" "http://www.w3.org/Graphics/SVG/1.1/DTD/svg11.dtd">
<svg version="1.1" id="레이어_1" xmlns="http://www.w3.org/2000/svg" xmlns:xlink="http://www.w3.org/1999/xlink" x="0px"
	 y="0px" width="30px" height="30px" viewBox="30 10 30 30" enable-background="new 30 10 30 30" xml:space="preserve">
<g>
	<path fill="#CCCCCC" d="M41.757,12.949v-0.01V12.949z"/>
	<path fill="#CCCCCC" d="M59.555,37.771l-0.881-0.879c-1.095-1.095-2.229-2.188-3.305-3.281c-0.938-0.947-1.877-1.906-2.816-2.854
		l-1.564-1.592l0.217-0.304c1.955-2.668,2.679-5.616,2.229-8.771c-0.47-3.263-2.034-5.891-4.655-7.796
		C46.706,10.791,44.3,10,41.815,10c-3.246,0-6.316,1.328-8.604,3.74c-4.028,4.23-4.302,10.834-0.626,15.368
		c2.249,2.793,5.711,4.465,9.271,4.465c2.542,0,4.986-0.83,7.079-2.395l0.313-0.234l0.509,0.498l7.079,7.074
		c0.353,0.371,0.743,0.741,1.134,1.133C58.225,39.883,58.518,40,58.851,40c0.527,0,0.958-0.332,1.095-0.859
		C60.083,38.613,59.965,38.162,59.555,37.771z M41.815,31.119c-5.201-0.039-9.348-4.248-9.309-9.357
		c0.039-5.1,4.186-9.262,9.25-9.262h0.099c5.201,0.059,9.289,4.143,9.271,9.311C51.105,26.949,46.939,31.119,41.815,31.119z"/>
</g>
</svg>
